<svg id="구성_요소_180_2" data-name="구성 요소 180 – 2" xmlns="http://www.w3.org/2000/svg" width="20" height="20" viewBox="0 0 20 20">
  <rect id="사각형_8181" data-name="사각형 8181" width="20" height="20" fill="none"/>
  <path id="trophy" d="M4.5,16.5h8m-4,0V10.786m0,0a4.571,4.571,0,0,0,4.571-4.571V1.643A1.143,1.143,0,0,0,11.929.5H5.071A1.143,1.143,0,0,0,3.929,1.643V6.214A4.571,4.571,0,0,0,8.5,10.786Zm-4.571-8H2.786a2.286,2.286,0,1,0,0,4.571H3.929m9.143-4.571h1.143a2.286,2.286,0,1,1,0,4.571H13.071" transform="translate(1.5 2)" fill="none" stroke="#333333" stroke-linecap="round" stroke-linejoin="round" stroke-width="1.5"/>
</svg>
