<?xml version="1.0" encoding="UTF-8"?>
<svg id="Layer_2" data-name="Layer 2" xmlns="http://www.w3.org/2000/svg" viewBox="0 0 18 18">
  <defs>
    <style>
      .cls-1 {
        fill: #333;
      }
    </style>
  </defs>
  <g id="Layer_2-2" data-name="Layer 2">
    <g id="_그룹_10708" data-name=" 그룹 10708">
      <path id="_타원_75" data-name=" 타원 75" class="cls-1" d="M9,1.5C4.86,1.5,1.5,4.86,1.5,9s3.36,7.5,7.5,7.5,7.5-3.36,7.5-7.5S13.14,1.5,9,1.5m0-1.5c4.97,0,9,4.03,9,9s-4.03,9-9,9S0,13.97,0,9,4.03,0,9,0Z"/>
      <path id="_패스_4698" data-name=" 패스 4698" class="cls-1" d="M9,15.72c-.41,0-.75-.34-.75-.75V3.03c0-.41,.34-.75,.75-.75s.75,.34,.75,.75V14.97c0,.41-.34,.75-.75,.75Z"/>
      <path class="cls-1" d="M9.91,10.08c-.25-.15-.52-.28-.83-.37-.31-.09-.62-.17-.94-.25-.32-.07-.63-.16-.93-.26s-.57-.24-.82-.42c-.53-.4-.84-.9-.93-1.49-.08-.59,.05-1.18,.38-1.78,.18-.31,.42-.56,.72-.77s.63-.35,.98-.46,.72-.17,1.1-.18c.37,0,.74,0,1.07,.05,.22,.04,.45,.09,.7,.16,.25,.07,.47,.16,.69,.28s.41,.26,.58,.44c.17,.17,.3,.39,.38,.65,.05,.17,.06,.33,.03,.49-.04,.15-.1,.28-.19,.39-.1,.1-.22,.18-.37,.24-.15,.05-.31,.06-.47,.04-.19-.04-.37-.1-.55-.17-.17-.08-.34-.16-.51-.25-.17-.09-.35-.17-.52-.24s-.36-.1-.55-.1c-.3,0-.55,.04-.74,.15s-.33,.26-.4,.43c-.07,.17-.06,.35,.02,.55s.26,.36,.54,.51c.25,.13,.52,.24,.82,.31s.59,.15,.88,.24c.29,.08,.57,.17,.85,.27,.28,.1,.53,.25,.75,.43,.43,.35,.69,.75,.79,1.23,.1,.46,.07,.93-.09,1.38-.15,.45-.43,.85-.81,1.21s-.84,.58-1.35,.7c-.37,.08-.78,.12-1.22,.12s-.86-.05-1.28-.14-.83-.24-1.21-.43-.7-.45-.96-.74c-.18-.21-.27-.45-.28-.71,0-.26,.05-.5,.15-.7s.27-.35,.47-.42c.21-.08,.45-.04,.7,.14,.21,.15,.45,.28,.74,.42s.57,.25,.85,.32c.28,.08,.56,.12,.83,.12s.5-.05,.69-.17c.28-.18,.44-.39,.45-.64,0-.24-.07-.43-.25-.55h.04Z"/>
    </g>
  </g>
</svg>