<svg xmlns="http://www.w3.org/2000/svg" width="14" height="14" viewBox="0 0 14 14">
  <path id="tooltip_icon" d="M7.85,7.85V7.276a.574.574,0,0,0-.574.574ZM7.276,9.227a.574.574,0,1,0,1.148,0ZM5.9,6.473a.574.574,0,1,0,1.148,0ZM7.85,10.03a.574.574,0,1,0,0,1.148Zm.064,1.148a.574.574,0,1,0,0-1.148ZM7.85,5.67H8.4V4.522H7.85Zm1.262.711v.092H10.26V6.381Zm-.8.9H7.85V8.424h.459ZM7.276,7.85V9.227H8.424V7.85ZM9.112,6.473a.8.8,0,0,1-.8.8V8.424A1.951,1.951,0,0,0,10.26,6.473ZM8.4,5.67a.711.711,0,0,1,.711.711H10.26A1.859,1.859,0,0,0,8.4,4.522ZM7.85,4.522A1.951,1.951,0,0,0,5.9,6.473H7.047a.8.8,0,0,1,.8-.8Zm0,6.656h.064V10.03H7.85Zm0,2.525A5.852,5.852,0,0,1,2,7.85H.85a7,7,0,0,0,7,7ZM13.7,7.85A5.852,5.852,0,0,1,7.85,13.7V14.85a7,7,0,0,0,7-7ZM7.85,2A5.852,5.852,0,0,1,13.7,7.85H14.85a7,7,0,0,0-7-7ZM7.85.85a7,7,0,0,0-7,7H2A5.852,5.852,0,0,1,7.85,2Z" transform="translate(-0.85 -0.85)" fill="#7e7d77"/>
</svg>
