<svg xmlns="http://www.w3.org/2000/svg" width="22" height="22" viewBox="0 0 22 22"><path d="M9.85,9.85V9.112a.738.738,0,0,0-.738.738Zm-.738,1.77a.738.738,0,1,0,1.475,0ZM7.342,8.08a.738.738,0,1,0,1.475,0ZM9.85,12.653a.738.738,0,1,0,0,1.475Zm.083,1.475a.738.738,0,0,0,0-1.475ZM9.85,7.047h.708V5.571H9.85Zm1.623.915V8.08h1.475V7.961ZM10.44,9.112H9.85v1.475h.59ZM9.112,9.85v1.77h1.475V9.85Zm2.361-1.77A1.033,1.033,0,0,1,10.44,9.112v1.475A2.508,2.508,0,0,0,12.948,8.08Zm-.915-1.033a.915.915,0,0,1,.915.915h1.475a2.39,2.39,0,0,0-2.39-2.39ZM9.85,5.571A2.508,2.508,0,0,0,7.342,8.08H8.817A1.033,1.033,0,0,1,9.85,7.047Zm0,8.557h.083V12.653H9.85Zm0,3.246A7.525,7.525,0,0,1,2.326,9.85H.85a9,9,0,0,0,9,9ZM17.375,9.85A7.525,7.525,0,0,1,9.85,17.375V18.85a9,9,0,0,0,9-9ZM9.85,2.325A7.525,7.525,0,0,1,17.375,9.85H18.85a9,9,0,0,0-9-9ZM9.85.85a9,9,0,0,0-9,9H2.326A7.525,7.525,0,0,1,9.85,2.325Z" transform="translate(1.15 1.15)" fill="#212121"/></svg>