<svg id="그룹_10707" data-name="그룹 10707" xmlns="http://www.w3.org/2000/svg" width="18" height="18" viewBox="0 0 18 18">
  <g id="구성_요소_50_17" data-name="구성 요소 50 – 17">
    <g id="그룹_10398" data-name="그룹 10398" transform="translate(2 2)">
      <g id="타원_76" data-name="타원 76" transform="translate(3.825)" fill="none" stroke="#e0e0e0" stroke-linecap="round" stroke-linejoin="round" stroke-width="1.5">
        <circle cx="3.375" cy="3.375" r="3.375" stroke="none"/>
        <circle cx="3.375" cy="3.375" r="2.625" fill="none"/>
      </g>
      <g id="패스_4699" data-name="패스 4699" transform="translate(0 5.625)" fill="none" stroke-linecap="round" stroke-linejoin="round">
        <path d="M7.2,0c5.178,0,7.2,4.425,7.2,8.4C14.385,8.41.041,8.448,0,8.4,0,4.425,2.024,0,7.2,0Z" stroke="none"/>
        <path d="M 7.2017822265625 1.49999475479126 C 5.327332496643066 1.49999475479126 3.872252464294434 2.201614856719971 2.876972198486328 3.585364818572998 C 2.240736961364746 4.469916820526123 1.801762580871582 5.639521598815918 1.609538078308105 6.920893669128418 C 2.226038932800293 6.922971725463867 3.092032432556152 6.924405097961426 4.307842254638672 6.924405097961426 C 7.123382091522217 6.924405097961426 10.74949264526367 6.916401863098145 12.79235553741455 6.909798145294189 C 12.59927558898926 5.632721900939941 12.1610107421875 4.467391967773438 11.52659225463867 3.585364818572998 C 10.53131198883057 2.201614856719971 9.07623291015625 1.49999475479126 7.2017822265625 1.49999475479126 M 7.2017822265625 -4.76837158203125e-06 C 12.37951278686523 -4.76837158203125e-06 14.40356254577637 4.424644947052002 14.40356254577637 8.402074813842773 C 14.38495254516602 8.409714698791504 0.04088115692138672 8.448265075683594 1.9073486328125e-06 8.402074813842773 C 1.9073486328125e-06 4.424644947052002 2.024052619934082 -4.76837158203125e-06 7.2017822265625 -4.76837158203125e-06 Z" stroke="none" fill="#e0e0e0"/>
      </g>
    </g>
    <rect id="사각형_8195" data-name="사각형 8195" width="18" height="18" fill="none"/>
  </g>
</svg>
