<svg xmlns="http://www.w3.org/2000/svg" viewBox="0 0 66 26.29"><defs><style>.cls-1{fill:#f5bd20;}.cls-2{fill:#f4bc1e;}.cls-3{isolation:isolate;}.cls-4{fill:none;stroke:#000;stroke-miterlimit:10;stroke-width:0.25px;}</style></defs><g id="Layer_2" data-name="Layer 2"><g id="Layer_1-2" data-name="Layer 1"><g id="Layer_2-2" data-name="Layer 2"><g id="Layer_1-2-2" data-name="Layer 1-2"><path class="cls-1" d="M57.32,0H29.41a8.55,8.55,0,0,0-8.74,8.36,8.51,8.51,0,0,0,8,8.34.52.52,0,0,1,.49.61c0,.06,0,.1,0,.14a8.35,8.35,0,0,1-.77,1.26.52.52,0,0,0,.15.74.71.71,0,0,0,.54.06A6.93,6.93,0,0,0,32.19,17a.53.53,0,0,1,.47-.25H57.3A8.51,8.51,0,0,0,66,8.42,8.53,8.53,0,0,0,57.32,0Z"/><path d="M20.88,15.94a11.32,11.32,0,0,1-.17,2.39l0,.16,0,.16a7.41,7.41,0,0,1-.54,1.56,9.06,9.06,0,0,1-1.45,2.45,9.26,9.26,0,0,1-2.07,1.87,8.44,8.44,0,0,1-2.48,1.14,15.45,15.45,0,0,1-4.38.62,15.29,15.29,0,0,1-3-.3l-.17,0-.23-.08a8.26,8.26,0,0,1-3.75-2.15v0l-.14-.16h0l-.06-.14C.81,21.7,0,19.13.11,15.78c.06-3,0-6.33-.11-9.94V5.29A6.91,6.91,0,0,1,.85,1.54h0l.26-.3.09-.06A2.84,2.84,0,0,1,3,.22a4.15,4.15,0,0,1,3.64.88,2.76,2.76,0,0,1,.66,1.13,6.65,6.65,0,0,1,.25,1.14c0,.3,0,.74,0,1.28a2.58,2.58,0,0,0,0,.68v.28c0,.63,0,1.11,0,1.37l1.54-.36a9,9,0,0,1,2.2-.16,9.36,9.36,0,0,1,2.8.5v0l.18.06.23.08a10.82,10.82,0,0,1,2.22,1.14l.17.14.15.1a9.42,9.42,0,0,1,3.53,5.14,9.45,9.45,0,0,1,.39,2v.16ZM10.41,19.29a2,2,0,0,0,.9-.22,1.68,1.68,0,0,0,.62-.62,4.11,4.11,0,0,0,.45-1.1,4.38,4.38,0,0,0,.06-1.25A2.84,2.84,0,0,0,12.12,15a2.12,2.12,0,0,0-.71-.88,1.84,1.84,0,0,0-1.36-.38,1.42,1.42,0,0,0-.65.16,4,4,0,0,0-.4.22,1.93,1.93,0,0,0-.64.92,6.24,6.24,0,0,0-.11,2v.36a2,2,0,0,0,.62,1.56A2,2,0,0,0,10.41,19.29Z"/><path class="cls-2" d="M6.18,16.32c0,1.43.1,3.79,2.78,3.35,4.21-.68,6.39-2.18,6.45-3.11S14.3,14.1,8.83,12.93C6.73,12.51,6.18,14.9,6.18,16.32Z"/></g></g><g class="cls-3"><path d="M28.07,10.88c0-.83,0-1.65,0-2.46s0-1.63,0-2.46a.5.5,0,0,0-.17,0h-.17l-.16,0a.33.33,0,0,1-.14-.1l.07-.09a.25.25,0,0,1,.08-.1,1.27,1.27,0,0,1,.27-.18.72.72,0,0,0,.25-.21.2.2,0,0,1,.13-.06l.18,0,.46,0,.45,0a4.34,4.34,0,0,1,.72,0,4.4,4.4,0,0,1,.73.07,2.71,2.71,0,0,1,2,1.62,3.61,3.61,0,0,1,.27,1.12A3.73,3.73,0,0,1,33,9.07a3.77,3.77,0,0,1-.54,1.2,3.55,3.55,0,0,1-1,1,3.64,3.64,0,0,1-1.49.59,4.28,4.28,0,0,1-1.62-.08,1.63,1.63,0,0,1-.54-.23,1.39,1.39,0,0,1-.43-.44.37.37,0,0,1,.15-.13l.17-.05.21,0A.64.64,0,0,0,28.07,10.88Zm1.08.55a.52.52,0,0,0,.35.08,1.33,1.33,0,0,0,.34-.1A2.83,2.83,0,0,0,30.6,11a3.63,3.63,0,0,0,1.26-1.92,4.09,4.09,0,0,0,.08-1.44,3.12,3.12,0,0,0-.18-.73,2.72,2.72,0,0,0-.36-.67A2.62,2.62,0,0,0,31,5.78a1.83,1.83,0,0,0-.55-.3,2,2,0,0,0-.67-.11,2,2,0,0,0-.76.14c0,1,.06,2,.08,3S29.11,10.44,29.15,11.43Z"/><path d="M37.67,11.53l-.2,0a.64.64,0,0,1-.2,0,.73.73,0,0,1-.49-.1.51.51,0,0,1-.17-.38v-.35c0-.11,0-.22,0-.34v-.3l-.24.26-.21.22a2.57,2.57,0,0,1-.49.38,1.37,1.37,0,0,1-.65.18,4.59,4.59,0,0,1-.73,0,.85.85,0,0,1-.38-.19,1,1,0,0,1-.21-.3l-.09-.27a1.45,1.45,0,0,1,0-.29,3.36,3.36,0,0,1,.08-1A3.51,3.51,0,0,1,34,8.2a3.06,3.06,0,0,1,.38-.53,2.28,2.28,0,0,1,.52-.45A2.41,2.41,0,0,1,37.13,7l.19,0h.2a.61.61,0,0,1,.31.07s.06.12.08.25a3,3,0,0,1,0,.67c0,.22-.07.45-.09.67L37.69,9.8l-.09,1.11a.93.93,0,0,0,0,.29A2.88,2.88,0,0,1,37.67,11.53ZM36.09,7.16a2.26,2.26,0,0,0-.26.16,2.11,2.11,0,0,0-.23.19,3.29,3.29,0,0,0-.84,1.37,3.41,3.41,0,0,0,0,1.53,1.09,1.09,0,0,0,0,.17.31.31,0,0,0,.17.17l.25-.22a1.81,1.81,0,0,0,.24-.24,6.44,6.44,0,0,0,.69-.89c.21-.32.4-.64.6-1a.91.91,0,0,0,.07-.23,1.66,1.66,0,0,0,0-.33,1.43,1.43,0,0,0,0-.36.68.68,0,0,0-.12-.3.32.32,0,0,0-.22-.15A.58.58,0,0,0,36.09,7.16Z"/><path d="M41.89,7.48a1.36,1.36,0,0,1-.59.19l-.57.08c-.06.45-.1.89-.13,1.33a10.47,10.47,0,0,0,0,1.22,5.08,5.08,0,0,0,.11,1,.84.84,0,0,0,.31.53.87.87,0,0,1-.36.18,1.13,1.13,0,0,1-.41,0,.9.9,0,0,1-.35-.18.62.62,0,0,1-.23-.32,2.07,2.07,0,0,1-.1-.33l-.06-.32a11.07,11.07,0,0,1,0-1.41c0-.47,0-.94.1-1.41a.28.28,0,0,1,0-.09.29.29,0,0,1,0-.09,1.11,1.11,0,0,0-.65,0,1.17,1.17,0,0,1-.44,0c-.11,0-.18-.07-.19-.12s0-.1.1-.15a1.13,1.13,0,0,1,.44-.1l.38,0h.39l.09-.55c0-.19.05-.37.08-.54s0-.4.08-.59,0-.39.08-.58A.39.39,0,0,1,40,5a.57.57,0,0,1,.27-.08h.19l.19,0a.38.38,0,0,1,.23.09.49.49,0,0,1,.05.25c0,.24,0,.48-.07.73s-.05.49-.07.73a1.87,1.87,0,0,0,0,.34c0,.11,0,.23,0,.36a.82.82,0,0,0,.27,0l.29,0a1,1,0,0,1,.3,0A.66.66,0,0,1,41.89,7.48Z"/><path d="M46.36,11.53l-.2,0a.66.66,0,0,1-.21,0,.72.72,0,0,1-.48-.1.51.51,0,0,1-.17-.38,2,2,0,0,1,0-.35c0-.11,0-.22,0-.34v-.3c-.09.1-.18.18-.24.26l-.22.22a2.07,2.07,0,0,1-.49.38,1.3,1.3,0,0,1-.64.18,4.59,4.59,0,0,1-.73,0,.85.85,0,0,1-.38-.19,1,1,0,0,1-.21-.3c0-.09-.06-.18-.09-.27a1.45,1.45,0,0,1,0-.29,3.36,3.36,0,0,1,.08-1,3.47,3.47,0,0,1,.35-.92,3.79,3.79,0,0,1,.39-.53,2.28,2.28,0,0,1,.52-.45A2.41,2.41,0,0,1,45.82,7L46,7h.21a.53.53,0,0,1,.3.07.43.43,0,0,1,.09.25,3,3,0,0,1,0,.67c0,.22-.07.45-.09.67L46.38,9.8l-.09,1.11a.93.93,0,0,0,0,.29A2.88,2.88,0,0,1,46.36,11.53ZM44.78,7.16a2.26,2.26,0,0,0-.26.16,2.11,2.11,0,0,0-.23.19,3.19,3.19,0,0,0-.84,1.37,3.41,3.41,0,0,0-.05,1.53,1.09,1.09,0,0,0,.05.17.31.31,0,0,0,.17.17l.25-.22a1.81,1.81,0,0,0,.24-.24,6.44,6.44,0,0,0,.69-.89c.21-.32.4-.64.59-1a.59.59,0,0,0,.08-.23,1.66,1.66,0,0,0,0-.33,2.11,2.11,0,0,0,0-.36.82.82,0,0,0-.12-.3.34.34,0,0,0-.22-.15A.57.57,0,0,0,44.78,7.16Z"/></g><g class="cls-3"><path class="cls-4" d="M28.07,10.88c0-.83,0-1.65,0-2.46s0-1.63,0-2.46a.5.5,0,0,0-.17,0h-.17l-.16,0a.33.33,0,0,1-.14-.1l.07-.09a.25.25,0,0,1,.08-.1,1.27,1.27,0,0,1,.27-.18.72.72,0,0,0,.25-.21.2.2,0,0,1,.13-.06l.18,0,.46,0,.45,0a4.34,4.34,0,0,1,.72,0,4.4,4.4,0,0,1,.73.07,2.71,2.71,0,0,1,2,1.62,3.61,3.61,0,0,1,.27,1.12A3.73,3.73,0,0,1,33,9.07a3.77,3.77,0,0,1-.54,1.2,3.55,3.55,0,0,1-1,1,3.64,3.64,0,0,1-1.49.59,4.28,4.28,0,0,1-1.62-.08,1.63,1.63,0,0,1-.54-.23,1.39,1.39,0,0,1-.43-.44.37.37,0,0,1,.15-.13l.17-.05.21,0A.64.64,0,0,0,28.07,10.88Zm1.08.55a.52.52,0,0,0,.35.08,1.33,1.33,0,0,0,.34-.1A2.83,2.83,0,0,0,30.6,11a3.63,3.63,0,0,0,1.26-1.92,4.09,4.09,0,0,0,.08-1.44,3.12,3.12,0,0,0-.18-.73,2.72,2.72,0,0,0-.36-.67A2.62,2.62,0,0,0,31,5.78a1.83,1.83,0,0,0-.55-.3,2,2,0,0,0-.67-.11,2,2,0,0,0-.76.14c0,1,.06,2,.08,3S29.11,10.44,29.15,11.43Z"/><path class="cls-4" d="M37.67,11.53l-.2,0a.64.64,0,0,1-.2,0,.73.73,0,0,1-.49-.1.51.51,0,0,1-.17-.38v-.35c0-.11,0-.22,0-.34v-.3l-.24.26-.21.22a2.57,2.57,0,0,1-.49.38,1.37,1.37,0,0,1-.65.18,4.59,4.59,0,0,1-.73,0,.85.85,0,0,1-.38-.19,1,1,0,0,1-.21-.3l-.09-.27a1.45,1.45,0,0,1,0-.29,3.36,3.36,0,0,1,.08-1A3.51,3.51,0,0,1,34,8.2a3.06,3.06,0,0,1,.38-.53,2.28,2.28,0,0,1,.52-.45A2.41,2.41,0,0,1,37.13,7l.19,0h.2a.61.61,0,0,1,.31.07s.06.12.08.25a3,3,0,0,1,0,.67c0,.22-.07.45-.09.67L37.69,9.8l-.09,1.11a.93.93,0,0,0,0,.29A2.88,2.88,0,0,1,37.67,11.53ZM36.09,7.16a2.26,2.26,0,0,0-.26.16,2.11,2.11,0,0,0-.23.19,3.29,3.29,0,0,0-.84,1.37,3.41,3.41,0,0,0,0,1.53,1.09,1.09,0,0,0,0,.17.31.31,0,0,0,.17.17l.25-.22a1.81,1.81,0,0,0,.24-.24,6.44,6.44,0,0,0,.69-.89c.21-.32.4-.64.6-1a.91.91,0,0,0,.07-.23,1.66,1.66,0,0,0,0-.33,1.43,1.43,0,0,0,0-.36.68.68,0,0,0-.12-.3.32.32,0,0,0-.22-.15A.58.58,0,0,0,36.09,7.16Z"/><path class="cls-4" d="M41.89,7.48a1.36,1.36,0,0,1-.59.19l-.57.08c-.06.45-.1.89-.13,1.33a10.47,10.47,0,0,0,0,1.22,5.08,5.08,0,0,0,.11,1,.84.84,0,0,0,.31.53.87.87,0,0,1-.36.18,1.13,1.13,0,0,1-.41,0,.9.9,0,0,1-.35-.18.62.62,0,0,1-.23-.32,2.07,2.07,0,0,1-.1-.33l-.06-.32a11.07,11.07,0,0,1,0-1.41c0-.47,0-.94.1-1.41a.28.28,0,0,1,0-.09.29.29,0,0,1,0-.09,1.11,1.11,0,0,0-.65,0,1.17,1.17,0,0,1-.44,0c-.11,0-.18-.07-.19-.12s0-.1.1-.15a1.13,1.13,0,0,1,.44-.1l.38,0h.39l.09-.55c0-.19.05-.37.08-.54s0-.4.08-.59,0-.39.08-.58A.39.39,0,0,1,40,5a.57.57,0,0,1,.27-.08h.19l.19,0a.38.38,0,0,1,.23.09.49.49,0,0,1,.05.25c0,.24,0,.48-.07.73s-.05.49-.07.73a1.87,1.87,0,0,0,0,.34c0,.11,0,.23,0,.36a.82.82,0,0,0,.27,0l.29,0a1,1,0,0,1,.3,0A.66.66,0,0,1,41.89,7.48Z"/><path class="cls-4" d="M46.36,11.53l-.2,0a.66.66,0,0,1-.21,0,.72.72,0,0,1-.48-.1.51.51,0,0,1-.17-.38,2,2,0,0,1,0-.35c0-.11,0-.22,0-.34v-.3c-.09.1-.18.18-.24.26l-.22.22a2.07,2.07,0,0,1-.49.38,1.3,1.3,0,0,1-.64.18,4.59,4.59,0,0,1-.73,0,.85.85,0,0,1-.38-.19,1,1,0,0,1-.21-.3c0-.09-.06-.18-.09-.27a1.45,1.45,0,0,1,0-.29,3.36,3.36,0,0,1,.08-1,3.47,3.47,0,0,1,.35-.92,3.79,3.79,0,0,1,.39-.53,2.28,2.28,0,0,1,.52-.45A2.41,2.41,0,0,1,45.82,7L46,7h.21a.53.53,0,0,1,.3.07.43.43,0,0,1,.09.25,3,3,0,0,1,0,.67c0,.22-.07.45-.09.67L46.38,9.8l-.09,1.11a.93.93,0,0,0,0,.29A2.88,2.88,0,0,1,46.36,11.53ZM44.78,7.16a2.26,2.26,0,0,0-.26.16,2.11,2.11,0,0,0-.23.19,3.19,3.19,0,0,0-.84,1.37,3.41,3.41,0,0,0-.05,1.53,1.09,1.09,0,0,0,.05.17.31.31,0,0,0,.17.17l.25-.22a1.81,1.81,0,0,0,.24-.24,6.44,6.44,0,0,0,.69-.89c.21-.32.4-.64.59-1a.59.59,0,0,0,.08-.23,1.66,1.66,0,0,0,0-.33,2.11,2.11,0,0,0,0-.36.82.82,0,0,0-.12-.3.34.34,0,0,0-.22-.15A.57.57,0,0,0,44.78,7.16Z"/></g><g class="cls-3"><path d="M51.63,11.32a.39.39,0,0,1,.24.09.06.06,0,0,1,0,.1.26.26,0,0,1-.14.07.46.46,0,0,1-.2,0h-.65l-.65,0a.77.77,0,0,1-.39-.16.53.53,0,0,1-.19-.37c0-.38-.06-.77-.07-1.19s0-.83,0-1.25,0-.84,0-1.25,0-.81,0-1.18c0-.15,0-.3,0-.44s0-.29,0-.43a.43.43,0,0,1,.08-.24A.42.42,0,0,1,50,5h0a.75.75,0,0,1,.51.06c.08.07.12.22.11.47,0,.42,0,.84,0,1.26s0,.84,0,1.26c0,.2,0,.42,0,.66s0,.49,0,.73l0,.74a6.08,6.08,0,0,0,.07.66,1.39,1.39,0,0,0,.11.37.22.22,0,0,0,.17.11,1.11,1.11,0,0,0,.26,0A1.55,1.55,0,0,1,51.63,11.32Z"/><path d="M56.41,11.53l-.2,0-.21,0a.7.7,0,0,1-.48-.1.47.47,0,0,1-.17-.38,2,2,0,0,1,0-.35c0-.11,0-.22,0-.34v-.3l-.25.26-.21.22a2.29,2.29,0,0,1-.49.38,1.33,1.33,0,0,1-.64.18,4.53,4.53,0,0,1-.73,0,.8.8,0,0,1-.38-.19.89.89,0,0,1-.22-.3,2.76,2.76,0,0,1-.08-.27,1.47,1.47,0,0,1,0-.29,4.3,4.3,0,0,1,.08-1,3.51,3.51,0,0,1,.36-.92,4.7,4.7,0,0,1,.38-.53,2.34,2.34,0,0,1,.53-.45A2.4,2.4,0,0,1,55.87,7l.18,0h.2a.55.55,0,0,1,.31.07.38.38,0,0,1,.08.25,3,3,0,0,1,0,.67c0,.22-.07.45-.09.67,0,.37-.07.75-.1,1.12s-.06.74-.08,1.11a.93.93,0,0,0,0,.29C56.38,11.3,56.39,11.41,56.41,11.53ZM54.83,7.16a1.75,1.75,0,0,0-.27.16l-.22.19a3.1,3.1,0,0,0-.84,1.37,3.56,3.56,0,0,0-.06,1.53l.05.17c0,.07.08.12.18.17l.25-.22c.08-.08.16-.15.24-.24a8.47,8.47,0,0,0,.69-.89c.2-.32.4-.64.59-1a.83.83,0,0,0,.08-.23,3,3,0,0,0,0-.33,2.1,2.1,0,0,0,0-.36.82.82,0,0,0-.11-.3.36.36,0,0,0-.23-.15A.56.56,0,0,0,54.83,7.16Z"/><path d="M58.3,7.68l.1,0,.08,0a3,3,0,0,1,.8-.27,3.38,3.38,0,0,1,.84,0,1.32,1.32,0,0,1,.8.33,1.12,1.12,0,0,1,.34.74,3.23,3.23,0,0,1-.12,1.29,3.2,3.2,0,0,1-.55,1.07,3.56,3.56,0,0,1-.92.8,4.08,4.08,0,0,1-1.24.46A1.8,1.8,0,0,1,58,12a1.85,1.85,0,0,1-.46-.08.36.36,0,0,1-.15-.1.46.46,0,0,1-.07-.17,7.77,7.77,0,0,1-.16-1.58c0-.52,0-1,.09-1.58l.18-1.85c.07-.62.13-1.24.19-1.86a.27.27,0,0,1,.25-.27l.18,0a.49.49,0,0,1,.17,0,.38.38,0,0,1,.22.09.34.34,0,0,1,.05.23c0,.19,0,.39,0,.58s0,.38,0,.58,0,.33,0,.43a2.64,2.64,0,0,1,0,.29c0,.09,0,.18,0,.29s0,.25,0,.43Zm0,3.88a1.69,1.69,0,0,0,.6-.3,2.9,2.9,0,0,0,.57-.54A4.24,4.24,0,0,0,60,10a3.89,3.89,0,0,0,.33-.76,2.4,2.4,0,0,0,.1-.74,1.36,1.36,0,0,0-.16-.65.65.65,0,0,0-.28-.27.69.69,0,0,0-.39,0,1.89,1.89,0,0,0-.67.32,2.78,2.78,0,0,0-.53.5.24.24,0,0,0-.07.12.77.77,0,0,0,0,.15v.58c0,.23,0,.48,0,.73v1.3s0,.07,0,.11Z"/></g><g class="cls-3"><path class="cls-4" d="M51.63,11.32a.39.39,0,0,1,.24.09.06.06,0,0,1,0,.1.26.26,0,0,1-.14.07.46.46,0,0,1-.2,0h-.65l-.65,0a.77.77,0,0,1-.39-.16.53.53,0,0,1-.19-.37c0-.38-.06-.77-.07-1.19s0-.83,0-1.25,0-.84,0-1.25,0-.81,0-1.18c0-.15,0-.3,0-.44s0-.29,0-.43a.43.43,0,0,1,.08-.24A.42.42,0,0,1,50,5h0a.75.75,0,0,1,.51.06c.08.07.12.22.11.47,0,.42,0,.84,0,1.26s0,.84,0,1.26c0,.2,0,.42,0,.66s0,.49,0,.73l0,.74a6.08,6.08,0,0,0,.07.66,1.39,1.39,0,0,0,.11.37.22.22,0,0,0,.17.11,1.11,1.11,0,0,0,.26,0A1.55,1.55,0,0,1,51.63,11.32Z"/><path class="cls-4" d="M56.41,11.53l-.2,0-.21,0a.7.7,0,0,1-.48-.1.47.47,0,0,1-.17-.38,2,2,0,0,1,0-.35c0-.11,0-.22,0-.34v-.3l-.25.26-.21.22a2.29,2.29,0,0,1-.49.38,1.33,1.33,0,0,1-.64.18,4.53,4.53,0,0,1-.73,0,.8.8,0,0,1-.38-.19.89.89,0,0,1-.22-.3,2.76,2.76,0,0,1-.08-.27,1.47,1.47,0,0,1,0-.29,4.3,4.3,0,0,1,.08-1,3.51,3.51,0,0,1,.36-.92,4.7,4.7,0,0,1,.38-.53,2.34,2.34,0,0,1,.53-.45A2.4,2.4,0,0,1,55.87,7l.18,0h.2a.55.55,0,0,1,.31.07.38.38,0,0,1,.08.25,3,3,0,0,1,0,.67c0,.22-.07.45-.09.67,0,.37-.07.75-.1,1.12s-.06.74-.08,1.11a.93.93,0,0,0,0,.29C56.38,11.3,56.39,11.41,56.41,11.53ZM54.83,7.16a1.75,1.75,0,0,0-.27.16l-.22.19a3.1,3.1,0,0,0-.84,1.37,3.56,3.56,0,0,0-.06,1.53l.05.17c0,.07.08.12.18.17l.25-.22c.08-.08.16-.15.24-.24a8.47,8.47,0,0,0,.69-.89c.2-.32.4-.64.59-1a.83.83,0,0,0,.08-.23,3,3,0,0,0,0-.33,2.1,2.1,0,0,0,0-.36.82.82,0,0,0-.11-.3.36.36,0,0,0-.23-.15A.56.56,0,0,0,54.83,7.16Z"/><path class="cls-4" d="M58.3,7.68l.1,0,.08,0a3,3,0,0,1,.8-.27,3.38,3.38,0,0,1,.84,0,1.32,1.32,0,0,1,.8.33,1.12,1.12,0,0,1,.34.74,3.23,3.23,0,0,1-.12,1.29,3.2,3.2,0,0,1-.55,1.07,3.56,3.56,0,0,1-.92.8,4.08,4.08,0,0,1-1.24.46A1.8,1.8,0,0,1,58,12a1.85,1.85,0,0,1-.46-.08.36.36,0,0,1-.15-.1.46.46,0,0,1-.07-.17,7.77,7.77,0,0,1-.16-1.58c0-.52,0-1,.09-1.58l.18-1.85c.07-.62.13-1.24.19-1.86a.27.27,0,0,1,.25-.27l.18,0a.49.49,0,0,1,.17,0,.38.38,0,0,1,.22.09.34.34,0,0,1,.05.23c0,.19,0,.39,0,.58s0,.38,0,.58,0,.33,0,.43a2.64,2.64,0,0,1,0,.29c0,.09,0,.18,0,.29s0,.25,0,.43Zm0,3.88a1.69,1.69,0,0,0,.6-.3,2.9,2.9,0,0,0,.57-.54A4.24,4.24,0,0,0,60,10a3.89,3.89,0,0,0,.33-.76,2.4,2.4,0,0,0,.1-.74,1.36,1.36,0,0,0-.16-.65.65.65,0,0,0-.28-.27.69.69,0,0,0-.39,0,1.89,1.89,0,0,0-.67.32,2.78,2.78,0,0,0-.53.5.24.24,0,0,0-.07.12.77.77,0,0,0,0,.15v.58c0,.23,0,.48,0,.73v1.3s0,.07,0,.11Z"/></g></g></g></svg>