<svg id="구성_요소_44_2" data-name="구성 요소 44 – 2" xmlns="http://www.w3.org/2000/svg" width="20" height="20" viewBox="0 0 20 20">
  <rect id="사각형_8189" data-name="사각형 8189" width="20" height="20" fill="none"/>
  <path id="google-ad" d="M4.023,10.237V7.142A1.665,1.665,0,0,1,5.785,5.595,1.665,1.665,0,0,1,7.546,7.142v3.095m5.872-5.158v5.158m0-2.579H11.07A1.11,1.11,0,0,0,9.9,8.689,1.11,1.11,0,0,0,11.07,9.721h2.349m-9.4-1.032H7.546M2.849.5H14.593a2.22,2.22,0,0,1,2.349,2.063V12.752a2.22,2.22,0,0,1-2.349,2.063H2.849A2.22,2.22,0,0,1,.5,12.752V2.563A2.22,2.22,0,0,1,2.849.5Z" transform="translate(1.279 2.3)" fill="none" stroke="#fff" stroke-linecap="round" stroke-linejoin="round" stroke-width="1.5"/>
</svg>
